<?xml version="1.0" encoding="utf-8"?>
<!-- Generator: Adobe Illustrator 25.2.3, SVG Export Plug-In . SVG Version: 6.00 Build 0)  -->
<svg version="1.1" id="Layer_1" xmlns="http://www.w3.org/2000/svg" xmlns:xlink="http://www.w3.org/1999/xlink" x="0px" y="0px"
	 viewBox="0 0 300 300" style="enable-background:new 0 0 300 300;" xml:space="preserve">
<style type="text/css">
	.st0{fill:url(#SVGID_1_);}
	.st1{fill:#FFFFFF;}
	.st2{fill:url(#SVGID_2_);}
</style>
<radialGradient id="SVGID_1_" cx="150.2143" cy="150.3929" r="150" gradientUnits="userSpaceOnUse">
	<stop  offset="0" style="stop-color:#FFFFFF"/>
	<stop  offset="1" style="stop-color:#BF2126"/>
</radialGradient>
<path class="st0" d="M142.21,0.39h16c78.42,0,142,63.58,142,142v16c0,78.42-63.58,142-142,142h-16c-78.42,0-142-63.58-142-142v-16
	C0.21,63.97,63.79,0.39,142.21,0.39z"/>
<path class="st1" d="M149.71,117.89c4.5,3.27-130,68-73,68h31.5h93c17.33,0,49.4-6.9,31-18.5L149.71,117.89z"/>
<ellipse transform="matrix(0.9397 -0.342 0.342 0.9397 -37.4326 29.4949)" class="st1" cx="64.92" cy="120.89" rx="22.04" ry="35.08"/>
<ellipse transform="matrix(0.342 -0.9397 0.9397 0.342 38.3388 296.5391)" class="st1" cx="230.92" cy="120.89" rx="35.08" ry="22.04"/>
<ellipse transform="matrix(0.9936 -0.1132 0.1132 0.9936 -7.8063 13.4245)" class="st1" cx="114.3" cy="75.45" rx="24.78" ry="39.51"/>
<ellipse transform="matrix(0.1132 -0.9936 0.9936 0.1132 86.7022 248.0391)" class="st1" cx="182.3" cy="75.45" rx="39.51" ry="24.78"/>
<path class="st1" d="M91.71,239.89c0-3.31,3.34-101.17,59.17-105.33c55.83-4.17,62.33,102.33,62.33,111.83s-6.66,32.13-29.83,3.48
	l-12.5-14.63c-10.38-10.75-18.18-13.09-30.8-3.23l-17.88,17.87C91.21,285.35,91.71,243.21,91.71,239.89z"/>
<radialGradient id="SVGID_2_" cx="150.2143" cy="187.8929" r="13.3651" gradientUnits="userSpaceOnUse">
	<stop  offset="0.3724" style="stop-color:#FFFFFF"/>
	<stop  offset="0.446" style="stop-color:#F7E9E3"/>
	<stop  offset="1" style="stop-color:#BF2126"/>
</radialGradient>
<path class="st2" d="M140.21,176.39h20c2.76,0,5,2.24,5,5v13c0,2.76-2.24,5-5,5h-20c-2.76,0-5-2.24-5-5v-13
	C135.21,178.63,137.45,176.39,140.21,176.39z"/>
</svg>
